<?xml version="1.0" encoding="UTF-8"?>
<!DOCTYPE svg PUBLIC "-//W3C//DTD SVG 1.1//EN" "http://www.w3.org/Graphics/SVG/1.1/DTD/svg11.dtd">
<svg xmlns="http://www.w3.org/2000/svg" version="1.1" width="360px" height="360px" style="shape-rendering:geometricPrecision; text-rendering:geometricPrecision; image-rendering:optimizeQuality; fill-rule:evenodd; clip-rule:evenodd" xmlns:xlink="http://www.w3.org/1999/xlink">
<g><path style="opacity:1" fill="#fefefe" d="M -0.5,-0.5 C 119.5,-0.5 239.5,-0.5 359.5,-0.5C 359.5,119.5 359.5,239.5 359.5,359.5C 239.5,359.5 119.5,359.5 -0.5,359.5C -0.5,239.5 -0.5,119.5 -0.5,-0.5 Z"/></g>
<g><path style="opacity:1" fill="#0a0c11" d="M 135.5,41.5 C 142.243,41.2692 148.577,42.7692 154.5,46C 163.597,54.767 169.763,65.267 173,77.5C 173.333,82.8333 173.667,88.1667 174,93.5C 176.536,99.4794 178.369,105.646 179.5,112C 186.702,113.862 194.035,114.862 201.5,115C 207.906,117.645 214.572,119.645 221.5,121C 227.059,124.631 233.059,126.631 239.5,127C 241.196,124.018 243.863,122.684 247.5,123C 252.951,115.214 258.785,107.714 265,100.5C 277.705,86.3979 293.539,79.8979 312.5,81C 316.792,84.0875 318.458,88.2541 317.5,93.5C 314.696,114.413 308.196,134.08 298,152.5C 296.61,159.005 294.61,165.338 292,171.5C 288.984,175.092 285.151,177.258 280.5,178C 276.739,179.777 276.072,182.11 278.5,185C 276.355,187.145 274.188,189.312 272,191.5C 267.018,206.47 261.185,221.136 254.5,235.5C 261.489,244.621 265.656,254.954 267,266.5C 267.499,270.486 267.666,274.486 267.5,278.5C 272.586,278.059 277.586,277.226 282.5,276C 286.167,275.333 289.833,275.333 293.5,276C 299.107,278.642 304.774,280.975 310.5,283C 321.184,291.489 322.851,301.322 315.5,312.5C 309.724,314.717 303.724,316.217 297.5,317C 291.981,317.999 286.647,317.499 281.5,315.5C 276.747,318.227 272.081,318.061 267.5,315C 262.5,314.667 257.5,314.333 252.5,314C 250.487,311.621 248.654,309.121 247,306.5C 246.517,305.552 246.351,304.552 246.5,303.5C 200.832,303.333 155.165,303.5 109.5,304C 107.232,305.558 106.066,307.724 106,310.5C 104.581,311.46 103.081,312.293 101.5,313C 96.1028,313.227 90.7695,313.894 85.5,315C 80.8333,315.667 76.1667,315.667 71.5,315C 62.6122,313.397 53.6122,312.397 44.5,312C 37.2206,304.513 36.7206,296.68 43,288.5C 47.8267,284.673 52.3267,280.506 56.5,276C 64.8522,274.928 73.1855,273.761 81.5,272.5C 81.0687,263.489 83.2354,255.156 88,247.5C 93.3647,240.107 97.698,232.107 101,223.5C 106.412,218.759 111.079,213.426 115,207.5C 114.512,199.531 114.512,191.531 115,183.5C 118.541,171.699 120.875,159.699 122,147.5C 119.954,145.624 118.121,143.624 116.5,141.5C 117.36,139.728 118.693,138.395 120.5,137.5C 113.533,124.14 114.033,111.14 122,98.5C 125.483,83.7376 127.149,68.7376 127,53.5C 128.64,48.5154 131.474,44.5154 135.5,41.5 Z"/></g>
<g><path style="opacity:1" fill="#d8d8da" d="M 171.5,109.5 C 172.791,110.542 172.791,111.708 171.5,113C 170.128,113.402 168.795,113.902 167.5,114.5C 161.999,112.158 157.999,113.658 155.5,119C 154.365,119.749 153.365,119.583 152.5,118.5C 154.995,116.836 156.995,114.67 158.5,112C 163.127,111.95 167.46,111.117 171.5,109.5 Z"/></g>
<g><path style="opacity:1" fill="#e4e4e5" d="M 125.5,109.5 C 127.5,109.5 129.5,109.5 131.5,109.5C 131.5,110.5 131.5,111.5 131.5,112.5C 129.856,112.286 128.356,112.62 127,113.5C 126.505,115.473 126.338,117.473 126.5,119.5C 132.367,119.206 134.033,121.872 131.5,127.5C 130.05,126.345 129.05,124.845 128.5,123C 126.899,122.727 125.399,122.227 124,121.5C 122.994,117.198 123.494,113.198 125.5,109.5 Z"/></g>
<g><path style="opacity:1" fill="#e7e8e8" d="M 145.5,94.5 C 149.869,93.9232 153.869,94.7565 157.5,97C 155.821,97.3947 154.155,97.228 152.5,96.5C 150.945,96.722 149.611,97.3887 148.5,98.5C 146.59,103.433 146.256,108.433 147.5,113.5C 145.665,114.192 143.832,113.858 142,112.5C 140.473,114.221 139.473,116.221 139,118.5C 138.333,115.5 138.333,112.5 139,109.5C 141.325,105.838 142.658,101.838 143,97.5C 144.045,96.6266 144.878,95.6266 145.5,94.5 Z"/></g>
<g><path style="opacity:1" fill="#d9dada" d="M 133.5,87.5 C 132.015,93.6959 131.015,100.029 130.5,106.5C 129.914,106.291 129.414,105.957 129,105.5C 127.78,99.1336 128.613,93.1336 131.5,87.5C 132.327,82.0149 132.827,76.3482 133,70.5C 133.499,76.1569 133.666,81.8236 133.5,87.5 Z"/></g>
<g><path style="opacity:1" fill="#afb0b2" d="M 133.5,87.5 C 133.666,81.8236 133.499,76.1569 133,70.5C 132.827,76.3482 132.327,82.0149 131.5,87.5C 131.334,81.4908 131.501,75.4908 132,69.5C 132.036,67.0588 132.869,65.0588 134.5,63.5C 134.833,64.1667 135.167,64.8333 135.5,65.5C 134.898,72.9837 134.232,80.317 133.5,87.5 Z"/></g>
<g><path style="opacity:1" fill="#e3e3e4" d="M 142.5,48.5 C 152.05,50.8813 158.216,56.8813 161,66.5C 161.522,71.3995 162.855,76.0662 165,80.5C 165.333,87.1667 165.667,93.8333 166,100.5C 168.088,102.824 167.921,104.824 165.5,106.5C 164.088,102.343 162.088,98.3432 159.5,94.5C 161.706,91.7204 163.039,88.5538 163.5,85C 160.723,76.0011 157.556,67.1678 154,58.5C 150.816,54.9959 146.982,52.6626 142.5,51.5C 142.5,50.5 142.5,49.5 142.5,48.5 Z"/></g>
<g><path style="opacity:1" fill="#e6e7e8" d="M 296.5,88.5 C 297.239,88.369 297.906,88.5357 298.5,89C 294.833,91.3333 291.167,93.6667 287.5,96C 284.322,101.355 280.655,106.355 276.5,111C 269.192,113.646 264.692,118.812 263,126.5C 262.369,130.857 262.535,135.191 263.5,139.5C 263.523,141.067 263.023,142.4 262,143.5C 255.992,127.681 260.492,115.847 275.5,108C 279.408,103.515 283.074,98.8482 286.5,94C 289.767,91.8713 293.101,90.038 296.5,88.5 Z"/></g>
<g><path style="opacity:1" fill="#e5e5e6" d="M 309.5,95.5 C 310.725,96.1522 311.392,97.3189 311.5,99C 309.896,107.376 306.062,114.543 300,120.5C 293.523,126.048 286.023,128.715 277.5,128.5C 277.5,127.5 277.5,126.5 277.5,125.5C 283.622,125.72 289.288,124.22 294.5,121C 299.598,115.959 304.098,110.459 308,104.5C 309.149,101.607 309.649,98.6074 309.5,95.5 Z"/></g>
<g><path style="opacity:1" fill="#f9f9f9" d="M 121.5,252.5 C 122.167,252.5 122.833,252.5 123.5,252.5C 124.189,253.774 125.023,253.774 126,252.5C 126.233,250.22 127.066,248.22 128.5,246.5C 127.995,245.081 126.995,244.415 125.5,244.5C 125.167,244.5 124.833,244.5 124.5,244.5C 129.495,238.524 133.495,231.858 136.5,224.5C 135.5,224.5 134.5,224.5 133.5,224.5C 139.424,212.973 146.091,201.973 153.5,191.5C 157.759,189.244 161.759,186.577 165.5,183.5C 166.167,183.833 166.833,184.167 167.5,184.5C 178.917,179.039 179.084,173.372 168,167.5C 167.686,163.871 166.519,160.538 164.5,157.5C 165.587,156.895 166.754,157.228 168,158.5C 168.333,157.833 168.667,157.167 169,156.5C 169.689,157.357 170.522,158.023 171.5,158.5C 172.891,154.52 172.225,150.853 169.5,147.5C 169.667,147.167 169.833,146.833 170,146.5C 171.816,148.441 173.816,149.108 176,148.5C 175.661,145.953 174.827,143.453 173.5,141C 174.137,139.287 175.137,139.121 176.5,140.5C 177.452,138.955 177.785,137.288 177.5,135.5C 178.833,135.5 180.167,135.5 181.5,135.5C 181.5,134.167 181.5,132.833 181.5,131.5C 182.833,131.5 184.167,131.5 185.5,131.5C 185.238,130.022 185.571,128.689 186.5,127.5C 188.322,128.429 189.655,127.762 190.5,125.5C 191.478,125.977 192.311,126.643 193,127.5C 193.837,125.993 195.004,125.493 196.5,126C 198.049,127.214 199.215,128.714 200,130.5C 200.667,129.833 201.333,129.167 202,128.5C 203.494,129.747 204.994,129.747 206.5,128.5C 207.083,126.998 207.916,125.665 209,124.5C 211.54,129.91 214.374,135.243 217.5,140.5C 218.167,140.167 218.833,139.833 219.5,139.5C 221.001,140.752 222.668,141.752 224.5,142.5C 222.607,144.952 221.274,147.619 220.5,150.5C 221.552,150.351 222.552,150.517 223.5,151C 222.289,152.113 222.289,153.28 223.5,154.5C 222.653,155.845 221.487,156.845 220,157.5C 218.726,162.712 216.893,167.712 214.5,172.5C 214.667,173.167 214.833,173.833 215,174.5C 216.377,172.246 217.877,170.08 219.5,168C 220.332,167.312 220.998,167.479 221.5,168.5C 219.776,171.95 219.109,175.617 219.5,179.5C 218.325,179.281 217.325,179.614 216.5,180.5C 215.239,182.453 214.073,184.453 213,186.5C 212.586,186.043 212.086,185.709 211.5,185.5C 209.574,190.717 210.574,195.217 214.5,199C 215.448,199.483 216.448,199.649 217.5,199.5C 217.801,204.907 218.634,210.24 220,215.5C 220.333,224.833 220.667,234.167 221,243.5C 223.969,251.89 224.969,260.557 224,269.5C 220.673,277.837 214.673,282.837 206,284.5C 198.627,284.458 195.627,280.791 197,273.5C 194.46,267.141 192.293,260.641 190.5,254C 191.911,251.022 192.911,247.855 193.5,244.5C 194.748,243.96 195.915,243.293 197,242.5C 198,239.833 199,237.167 200,234.5C 203.887,230.613 207.721,226.779 211.5,223C 210.896,220.532 209.562,218.532 207.5,217C 208,216.5 208.5,216 209,215.5C 210.507,216.505 211.673,217.838 212.5,219.5C 212.833,219.167 213.167,218.833 213.5,218.5C 212.167,217.5 212.167,216.5 213.5,215.5C 209.304,213.471 206.304,210.304 204.5,206C 203.668,205.312 203.002,205.479 202.5,206.5C 204.842,208.865 206.342,211.531 207,214.5C 203.16,211.039 199.66,207.206 196.5,203C 184.698,195.551 173.032,195.717 161.5,203.5C 159.415,202.353 157.915,203.02 157,205.5C 156.925,209.733 156.092,213.733 154.5,217.5C 157.713,222.224 157.046,226.224 152.5,229.5C 151.707,229.069 150.873,228.735 150,228.5C 148.433,229.856 146.6,230.523 144.5,230.5C 145.657,236.794 148.157,237.127 152,231.5C 154.394,239.129 153.727,246.462 150,253.5C 148.644,254.38 147.144,254.714 145.5,254.5C 143.906,263.793 138.573,267.293 129.5,265C 124.914,261.942 122.247,257.775 121.5,252.5 Z"/></g>
<g><path style="opacity:1" fill="#ebebed" d="M 125.5,126.5 C 129.473,128.46 129.473,130.46 125.5,132.5C 124.306,130.484 124.306,128.484 125.5,126.5 Z"/></g>
<g><path style="opacity:1" fill="#cfcfd1" d="M 169.5,128.5 C 175.735,129.289 175.902,130.622 170,132.5C 169.51,131.207 169.343,129.873 169.5,128.5 Z"/></g>
<g><path style="opacity:1" fill="#e9eaeb" d="M 243.5,128.5 C 244.304,130.189 245.304,131.855 246.5,133.5C 246.167,133.833 245.833,134.167 245.5,134.5C 243.118,132.929 240.451,132.096 237.5,132C 239.618,130.918 241.618,129.751 243.5,128.5 Z"/></g>
<g><path style="opacity:1" fill="#e0e1e2" d="M 166.5,130.5 C 167.695,130.866 168.361,131.699 168.5,133C 167.464,134.901 166.298,136.735 165,138.5C 163.978,137.646 163.145,136.646 162.5,135.5C 164.261,134.083 165.594,132.417 166.5,130.5 Z"/></g>
<g><path style="opacity:1" fill="#eaeaeb" d="M 266.5,135.5 C 269.247,135.187 271.914,135.52 274.5,136.5C 273.737,137.719 272.737,138.719 271.5,139.5C 272.833,140.5 274.167,141.5 275.5,142.5C 274.372,143.262 273.205,143.929 272,144.5C 272.278,148.139 272.278,151.806 272,155.5C 271.634,151.768 269.968,148.768 267,146.5C 266.501,142.848 266.335,139.182 266.5,135.5 Z"/></g>
<g><path style="opacity:1" fill="#dbdcde" d="M 161.5,138.5 C 163.085,139.002 163.585,140.002 163,141.5C 161.961,140.756 161.461,139.756 161.5,138.5 Z"/></g>
<g><path style="opacity:1" fill="#e3e3e4" d="M 142.5,120.5 C 146.068,120.759 147.401,122.759 146.5,126.5C 145.127,126.343 143.793,126.51 142.5,127C 139.245,130.974 135.579,134.474 131.5,137.5C 130.833,139.5 130.167,141.5 129.5,143.5C 128.604,142.494 127.938,142.494 127.5,143.5C 128.59,144.609 128.59,145.609 127.5,146.5C 125.585,144.929 124.585,142.929 124.5,140.5C 127.388,140.78 128.888,139.447 129,136.5C 133.183,133.721 136.85,130.388 140,126.5C 140.585,124.339 141.418,122.339 142.5,120.5 Z"/></g>
<g><path style="opacity:1" fill="#cdcdcf" d="M 159.5,140.5 C 160.289,140.783 160.956,141.283 161.5,142C 160.184,142.528 159.517,142.028 159.5,140.5 Z"/></g>
<g><path style="opacity:1" fill="#e2e3e4" d="M 295.5,128.5 C 296.598,129.601 296.765,130.934 296,132.5C 292.267,139.234 286.934,144.234 280,147.5C 279.5,147.167 279,146.833 278.5,146.5C 286.238,142.429 291.905,136.429 295.5,128.5 Z"/></g>
<g><path style="opacity:1" fill="#e9e9eb" d="M 299.5,135.5 C 300.598,136.601 300.765,137.934 300,139.5C 295.614,144.389 290.78,148.722 285.5,152.5C 284.479,151.998 284.312,151.332 285,150.5C 289.333,146.5 293.667,142.5 298,138.5C 298.513,137.473 299.013,136.473 299.5,135.5 Z"/></g>
<g><path style="opacity:1" fill="#adaeb1" d="M 157.5,143.5 C 159.384,143.712 160.717,144.712 161.5,146.5C 159.219,147.262 157.886,146.262 157.5,143.5 Z"/></g>
<g><path style="opacity:1" fill="#dcddde" d="M 239.5,153.5 C 240.797,154.849 240.63,156.182 239,157.5C 238.421,156.072 238.588,154.738 239.5,153.5 Z"/></g>
<g><path style="opacity:1" fill="#e5e5e7" d="M 148.5,151.5 C 151.93,151.107 155.096,151.773 158,153.5C 158.667,154.167 158.667,154.833 158,155.5C 149.687,152.729 142.187,154.229 135.5,160C 134.668,160.688 134.002,160.521 133.5,159.5C 137.188,154.098 142.188,151.431 148.5,151.5 Z"/></g>
<g><path style="opacity:1" fill="#d9dadb" d="M 245.5,141.5 C 249.898,140.503 252.565,142.503 253.5,147.5C 256.78,151.954 260.28,156.287 264,160.5C 264.595,161.899 264.428,163.232 263.5,164.5C 266.367,169.35 268.201,174.016 269,178.5C 268.127,178.265 267.293,177.931 266.5,177.5C 265.207,172.701 263.207,168.201 260.5,164C 261.451,163.282 261.617,162.449 261,161.5C 258.608,158.772 256.608,155.772 255,152.5C 253.622,150.787 251.955,149.453 250,148.5C 250.601,145.069 249.101,142.736 245.5,141.5 Z"/></g>
<g><path style="opacity:1" fill="#f1f2f2" d="M 288.5,155.5 C 289.5,155.5 290.5,155.5 291.5,155.5C 291.736,158.829 290.903,161.829 289,164.5C 286.834,162.879 284.334,162.045 281.5,162C 283.907,159.817 286.24,157.65 288.5,155.5 Z"/></g>
<g><path style="opacity:1" fill="#d7d8da" d="M 240.5,159.5 C 242.088,160.635 242.421,161.969 241.5,163.5C 239.358,162.563 239.024,161.23 240.5,159.5 Z"/></g>
<g><path style="opacity:1" fill="#babbbc" d="M 239.5,166.5 C 241.288,166.215 242.955,166.548 244.5,167.5C 243.754,168.736 243.421,170.07 243.5,171.5C 242.022,171.762 240.689,171.429 239.5,170.5C 240.363,169.274 240.363,167.94 239.5,166.5 Z"/></g>
<g><path style="opacity:1" fill="#e2e3e3" d="M 281.5,167.5 C 285.469,165.659 286.803,166.825 285.5,171C 282.431,172.91 279.431,172.91 276.5,171C 279.289,170.759 281.956,170.092 284.5,169C 283.756,167.961 282.756,167.461 281.5,167.5 Z"/></g>
<g><path style="opacity:1" fill="#d8d9da" d="M 153.5,191.5 C 144.501,194.625 137.334,192.292 132,184.5C 131.306,180.998 131.806,177.664 133.5,174.5C 134.164,178.654 135.331,182.654 137,186.5C 139.605,187.814 142.105,187.814 144.5,186.5C 146.582,186.528 148.416,185.861 150,184.5C 152.793,173.632 148.626,168.465 137.5,169C 139.623,167.806 141.957,167.14 144.5,167C 141.123,166.631 137.79,166.631 134.5,167C 138.77,165.054 143.103,165.054 147.5,167C 151.624,171.121 154.957,175.787 157.5,181C 157.167,181.5 156.833,182 156.5,182.5C 155.813,180.726 154.98,179.059 154,177.5C 154.601,184.753 151.434,189.253 144.5,191C 147.304,191.46 149.971,190.96 152.5,189.5C 153.298,189.957 153.631,190.624 153.5,191.5 Z"/></g>
<g><path style="opacity:1" fill="#c9cbcd" d="M 140.5,173.5 C 143.861,174.203 144.194,175.537 141.5,177.5C 139.358,176.563 139.024,175.23 140.5,173.5 Z"/></g>
<g><path style="opacity:1" fill="#a5a5a9" d="M 241.5,173.5 C 241.917,172.876 242.584,172.543 243.5,172.5C 245.761,173.563 247.761,174.896 249.5,176.5C 249.167,176.833 248.833,177.167 248.5,177.5C 245.954,176.466 243.621,175.133 241.5,173.5 Z"/></g>
<g><path style="opacity:1" fill="#dadbdd" d="M 237.5,178.5 C 244.694,177.267 250.36,179.6 254.5,185.5C 254.167,185.833 253.833,186.167 253.5,186.5C 248.649,182.368 242.983,180.368 236.5,180.5C 236.863,179.817 237.196,179.15 237.5,178.5 Z"/></g>
<g><path style="opacity:1" fill="#a9aaad" d="M 123.5,177.5 C 124.765,178.514 125.431,180.014 125.5,182C 125.333,183.5 125.167,185 125,186.5C 123.711,183.649 123.211,180.649 123.5,177.5 Z"/></g>
<g><path style="opacity:1" fill="#dadbdd" d="M 268.5,181.5 C 269.708,180.218 271.042,180.218 272.5,181.5C 271.3,182.292 269.967,182.292 268.5,181.5 Z"/></g>
<g><path style="opacity:1" fill="#b0b1b4" d="M 144.5,186.5 C 142.801,186.66 141.134,186.494 139.5,186C 137.993,185.163 137.493,183.996 138,182.5C 140.983,184.566 144.149,185.066 147.5,184C 146.429,184.852 145.429,185.685 144.5,186.5 Z"/></g>
<g><path style="opacity:1" fill="#eaebeb" d="M 239.5,189.5 C 242.52,188.528 245.52,189.028 248.5,191C 250.396,192.808 250.896,194.975 250,197.5C 249.283,196.956 248.783,196.289 248.5,195.5C 246.37,192.263 243.37,190.263 239.5,189.5 Z"/></g>
<g><path style="opacity:1" fill="#3e3e40" d="M 235.5,190.5 C 236.568,189.566 237.901,189.232 239.5,189.5C 243.37,190.263 246.37,192.263 248.5,195.5C 247.833,195.5 247.5,195.833 247.5,196.5C 245.704,195.207 244.037,193.707 242.5,192C 240.323,190.798 237.989,190.298 235.5,190.5 Z"/></g>
<g><path style="opacity:1" fill="#c5c6c9" d="M 128.5,191.5 C 130.296,192.793 131.963,194.293 133.5,196C 130.279,196.477 128.612,194.977 128.5,191.5 Z"/></g>
<g><path style="opacity:1" fill="#d3d3d5" d="M 121.5,189.5 C 123.035,191.939 123.868,194.606 124,197.5C 121.797,195.331 120.964,192.665 121.5,189.5 Z"/></g>
<g><path style="opacity:1" fill="#e2e2e4" d="M 235.5,190.5 C 237.989,190.298 240.323,190.798 242.5,192C 244.037,193.707 245.704,195.207 247.5,196.5C 247.719,197.675 247.386,198.675 246.5,199.5C 241.507,191.581 235.174,190.414 227.5,196C 230.447,196.112 231.78,197.612 231.5,200.5C 230.07,200.579 228.736,200.246 227.5,199.5C 226.459,201.991 225.626,201.991 225,199.5C 224.163,201.007 222.996,201.507 221.5,201C 224.206,198.629 226.539,195.963 228.5,193C 230.65,191.589 232.984,190.755 235.5,190.5 Z"/></g>
<g><path style="opacity:1" fill="#d3d3d5" d="M 260.5,196.5 C 262.225,196.843 262.725,197.843 262,199.5C 261,201.167 259.667,202.5 258,203.5C 258.937,201.326 259.771,198.993 260.5,196.5 Z"/></g>
<g><path style="opacity:1" fill="#dfdfe0" d="M 171.5,202.5 C 178.821,201.859 185.821,203.025 192.5,206C 196.761,207.898 198.928,211.064 199,215.5C 197.623,213.246 196.123,211.08 194.5,209C 190.12,207.822 185.787,206.488 181.5,205C 177.053,204.421 172.72,204.921 168.5,206.5C 168.167,206.333 167.833,206.167 167.5,206C 168.731,204.595 170.064,203.429 171.5,202.5 Z"/></g>
<g><path style="opacity:1" fill="#e9eaeb" d="M 229.5,205.5 C 229.56,204.957 229.893,204.624 230.5,204.5C 232.893,206.363 235.56,207.696 238.5,208.5C 236.926,209.631 235.259,209.798 233.5,209C 232.295,207.624 230.962,206.458 229.5,205.5 Z"/></g>
<g><path style="opacity:1" fill="#dedfe1" d="M 246.5,200.5 C 247.649,200.791 248.316,201.624 248.5,203C 246.365,212.778 240.365,216.444 230.5,214C 227.476,212.487 224.809,210.487 222.5,208C 224.163,207.735 225.663,208.235 227,209.5C 227,208.167 227,206.833 227,205.5C 231.369,213.617 237.036,214.617 244,208.5C 245.136,205.904 245.969,203.237 246.5,200.5 Z"/></g>
<g><path style="opacity:1" fill="#c8c9cb" d="M 248.5,208.5 C 249.573,209.251 249.74,210.251 249,211.5C 246.748,215.215 243.581,217.882 239.5,219.5C 239.167,219.167 238.833,218.833 238.5,218.5C 242.855,216.145 246.188,212.812 248.5,208.5 Z"/></g>
<g><path style="opacity:1" fill="#e5e6e6" d="M 187.5,214.5 C 194,213.499 196.5,216.165 195,222.5C 193.12,223.93 191.62,223.596 190.5,221.5C 191.325,220.614 192.325,220.281 193.5,220.5C 191.813,215.675 189.313,215.341 186,219.5C 185.667,222.167 185.333,224.833 185,227.5C 182.631,222.594 183.464,218.261 187.5,214.5 Z"/></g>
<g><path style="opacity:1" fill="#b9babc" d="M 180.5,215.5 C 181.497,215.47 182.164,215.97 182.5,217C 181.23,221.584 179.73,226.084 178,230.5C 178.023,225.396 178.857,220.396 180.5,215.5 Z"/></g>
<g><path style="opacity:1" fill="#d6d7d9" d="M 168.5,209.5 C 175.632,209.802 178.465,213.469 177,220.5C 176.268,222.923 174.768,224.09 172.5,224C 176.5,220 176.5,216 172.5,212C 169.074,210.762 167.408,211.929 167.5,215.5C 168.978,215.238 170.311,215.571 171.5,216.5C 169.764,219.105 167.931,219.105 166,216.5C 165.333,215.167 165.333,213.833 166,212.5C 167.045,211.627 167.878,210.627 168.5,209.5 Z"/></g>
<g><path style="opacity:1" fill="#2d2d31" d="M 213.5,221.5 C 215.337,221.639 215.67,222.306 214.5,223.5C 213.702,223.043 213.369,222.376 213.5,221.5 Z"/></g>
<g><path style="opacity:1" fill="#d3d4d6" d="M 116.5,212.5 C 120.154,219.033 121.487,226.033 120.5,233.5C 119.808,232.975 119.308,232.308 119,231.5C 118.673,225.052 117.84,218.718 116.5,212.5 Z"/></g>
<g><path style="opacity:1" fill="#1c1c20" d="M 214.5,225.5 C 216.561,226.751 216.894,228.418 215.5,230.5C 214.548,228.955 214.215,227.288 214.5,225.5 Z"/></g>
<g><path style="opacity:1" fill="#d5d6d8" d="M 164.5,226.5 C 166.63,228.127 168.63,229.96 170.5,232C 172.833,233 175.167,234 177.5,235C 181.31,235.415 184.977,235.082 188.5,234C 178.242,238.859 170.242,236.359 164.5,226.5 Z"/></g>
<g><path style="opacity:1" fill="#d7d7d8" d="M 251.5,216.5 C 251.395,221.328 249.895,225.995 247,230.5C 244.507,232.672 241.674,233.506 238.5,233C 245.59,229.643 249.924,224.143 251.5,216.5 Z"/></g>
<g><path style="opacity:1" fill="#d1d2d3" d="M 110.5,219.5 C 111.613,220.946 111.78,222.613 111,224.5C 105.055,235.385 102.222,247.052 102.5,259.5C 101.336,253.193 101.169,246.859 102,240.5C 105.133,233.596 107.966,226.596 110.5,219.5 Z"/></g>
<g><path style="opacity:1" fill="#dadbdd" d="M 124.5,234.5 C 125.873,234.343 127.207,234.51 128.5,235C 123.429,243.771 122.096,243.605 124.5,234.5 Z"/></g>
<g><path style="opacity:1" fill="#6a6b6d" d="M 174.5,247.5 C 174.795,245.265 174.461,243.265 173.5,241.5C 173.709,240.078 174.209,238.745 175,237.5C 175.808,241.027 175.641,244.36 174.5,247.5 Z"/></g>
<g><path style="opacity:1" fill="#121114" d="M 125.5,244.5 C 126.995,244.415 127.995,245.081 128.5,246.5C 127.066,248.22 126.233,250.22 126,252.5C 125.023,253.774 124.189,253.774 123.5,252.5C 123.56,249.659 124.226,246.993 125.5,244.5 Z"/></g>
<g><path style="opacity:1" fill="#e1e2e5" d="M 173.5,241.5 C 174.461,243.265 174.795,245.265 174.5,247.5C 173.192,250.297 172.525,250.131 172.5,247C 172.943,245.175 173.277,243.342 173.5,241.5 Z"/></g>
<g><path style="opacity:1" fill="#e0e1e2" d="M 244.5,238.5 C 246.028,238.517 246.528,239.184 246,240.5C 242.869,244.633 239.369,248.466 235.5,252C 233.091,253.707 230.425,254.54 227.5,254.5C 227.5,253.5 227.5,252.5 227.5,251.5C 231.187,250.824 234.52,249.324 237.5,247C 239.668,244.002 242.001,241.169 244.5,238.5 Z"/></g>
<g><path style="opacity:1" fill="#b4b5ba" d="M 124.5,244.5 C 124.833,244.5 125.167,244.5 125.5,244.5C 124.226,246.993 123.56,249.659 123.5,252.5C 122.833,252.5 122.167,252.5 121.5,252.5C 121.415,249.351 122.415,246.684 124.5,244.5 Z"/></g>
<g><path style="opacity:1" fill="#fbfbfb" d="M 246.5,297.5 C 201.499,297.667 156.499,297.5 111.5,297C 112.416,296.722 113.082,296.222 113.5,295.5C 112.312,291.062 111.312,286.562 110.5,282C 111.647,277.347 111.647,272.681 110.5,268C 112.181,260.923 113.848,254.09 115.5,247.5C 117.884,256.07 122.551,263.237 129.5,269C 143.09,271.126 156.756,272.793 170.5,274C 176.56,275.864 182.226,278.53 187.5,282C 193.79,282.664 199.79,284.164 205.5,286.5C 209.821,286.449 213.821,285.282 217.5,283C 222.467,278.2 226.467,272.7 229.5,266.5C 234.062,261.768 239.062,257.602 244.5,254C 247.078,251.926 249.078,249.426 250.5,246.5C 255.964,258.904 257.964,271.904 256.5,285.5C 253.901,285.549 251.734,286.549 250,288.5C 248.336,291.327 247.17,294.327 246.5,297.5 Z"/></g>
<g><path style="opacity:1" fill="#141418" d="M 196.5,253.5 C 198.948,253.01 200.615,253.843 201.5,256C 200.519,258.62 199.353,261.12 198,263.5C 195.456,262.79 194.289,261.124 194.5,258.5C 194.986,256.696 195.653,255.029 196.5,253.5 Z"/></g>
<g><path style="opacity:1" fill="#d1d2d4" d="M 237.5,252.5 C 238.239,252.369 238.906,252.536 239.5,253C 236.15,257.205 232.15,260.371 227.5,262.5C 227.5,260.833 227.5,259.167 227.5,257.5C 231.684,257.408 235.017,255.741 237.5,252.5 Z"/></g>
<g><path style="opacity:1" fill="#c8c8ca" d="M 175.5,251.5 C 178.755,253.926 181.588,256.926 184,260.5C 187.005,265.52 189.672,270.52 192,275.5C 186.644,267.327 181.144,259.327 175.5,251.5 Z"/></g>
<g><path style="opacity:1" fill="#d5d5d7" d="M 166.5,251.5 C 167.675,251.281 168.675,251.614 169.5,252.5C 169.167,252.833 168.833,253.167 168.5,253.5C 162.024,256.412 155.691,259.246 149.5,262C 154.594,257.459 160.261,253.959 166.5,251.5 Z"/></g>
<g><path style="opacity:1" fill="#2e2e2f" d="M 136.5,259.5 C 139.041,260.623 139.041,261.956 136.5,263.5C 134.206,262.375 134.206,261.041 136.5,259.5 Z"/></g>
<g><path style="opacity:1" fill="#e7e8e8" d="M 166.5,261.5 C 169.085,262.072 171.751,262.239 174.5,262C 175.833,264.667 177.833,266.667 180.5,268C 179.149,270.125 179.815,271.292 182.5,271.5C 183.672,271.081 184.672,270.415 185.5,269.5C 188.081,272.404 189.748,275.737 190.5,279.5C 189.127,279.657 187.793,279.49 186.5,279C 183.003,276.417 179.336,274.084 175.5,272C 165.267,270.109 154.934,268.943 144.5,268.5C 150.473,264.571 157.139,262.737 164.5,263C 165.416,262.722 166.082,262.222 166.5,261.5 Z"/></g>
<g><path style="opacity:1" fill="#111215" d="M 167.5,263.5 C 169.518,264.623 171.518,264.623 173.5,263.5C 174.95,264.85 175.617,266.516 175.5,268.5C 170.825,269.661 168.159,267.994 167.5,263.5 Z"/></g>
<g><path style="opacity:1" fill="#f3f3f3" d="M 72.5,276.5 C 79.5247,275.383 84.8581,277.717 88.5,283.5C 90.1929,281.721 92.1929,281.221 94.5,282C 103.027,286.859 105.36,293.692 101.5,302.5C 100.998,303.521 100.332,303.688 99.5,303C 97.7813,295.279 95.1146,294.779 91.5,301.5C 89.1698,299.425 88.0032,296.758 88,293.5C 87.5017,296.817 87.335,300.15 87.5,303.5C 86.1779,303.67 85.0113,303.337 84,302.5C 80.3448,291.797 77.3448,292.131 75,303.5C 73.5064,304.747 72.0064,304.747 70.5,303.5C 68.8515,284.927 67.8515,284.927 67.5,303.5C 64.6118,303.78 63.1118,302.447 63,299.5C 60.3784,296.761 58.2117,297.095 56.5,300.5C 58.0285,305.084 56.3618,306.584 51.5,305C 50.6198,303.644 50.2865,302.144 50.5,300.5C 47.1429,300.106 44.8095,301.439 43.5,304.5C 41.3498,296.795 43.6832,290.795 50.5,286.5C 51.2811,287.729 51.7811,289.062 52,290.5C 53.5272,286.614 55.6939,283.114 58.5,280C 62.0915,279.211 65.5915,279.378 69,280.5C 70.3756,279.295 71.5423,277.962 72.5,276.5 Z"/></g>
<g><path style="opacity:1" fill="#1f201f" d="M 204.5,277.5 C 206.476,278.427 206.809,279.76 205.5,281.5C 203.824,280.272 203.491,278.939 204.5,277.5 Z"/></g>
<g><path style="opacity:1" fill="#f3f3f3" d="M 274.5,280.5 C 277.85,280.335 281.183,280.502 284.5,281C 286.333,281.5 287.5,282.667 288,284.5C 292.522,281.688 296.855,282.021 301,285.5C 302.608,288.382 303.941,291.382 305,294.5C 305.49,293.207 305.657,291.873 305.5,290.5C 309.719,291.548 312.553,294.215 314,298.5C 314.824,301.882 314.657,305.216 313.5,308.5C 310.192,301.67 307.525,301.837 305.5,309C 303.866,309.494 302.199,309.66 300.5,309.5C 300.768,306.881 300.435,304.381 299.5,302C 295.652,301.013 293.652,302.513 293.5,306.5C 292.167,306.5 290.833,306.5 289.5,306.5C 289.826,302.116 289.492,297.783 288.5,293.5C 287.668,298.492 287.001,303.492 286.5,308.5C 284.61,308.703 283.11,308.037 282,306.5C 278.897,294.518 276.064,294.518 273.5,306.5C 272.167,306.5 270.833,306.5 269.5,306.5C 269.665,303.15 269.498,299.817 269,296.5C 268.881,300.01 267.714,303.01 265.5,305.5C 265.293,301.448 263.293,299.948 259.5,301C 258.914,303.28 258.08,305.447 257,307.5C 253.739,304.131 252.739,300.131 254,295.5C 256.153,290.34 259.82,287.007 265,285.5C 266.658,285.675 267.991,286.342 269,287.5C 269.938,284.402 271.772,282.069 274.5,280.5 Z"/></g>
<g><path style="opacity:1" fill="#767779" d="M 113.5,295.5 C 113.082,296.222 112.416,296.722 111.5,297C 156.499,297.5 201.499,297.667 246.5,297.5C 201.336,298.499 156.003,298.832 110.5,298.5C 110.5,297.5 110.5,296.5 110.5,295.5C 111.5,295.5 112.5,295.5 113.5,295.5 Z"/></g>
<g><path style="opacity:1" fill="#eff0f2" d="M 78.5,297.5 C 79.4959,297.414 80.3292,297.748 81,298.5C 81.4974,301.146 81.6641,303.813 81.5,306.5C 79.8762,306.64 78.7096,305.973 78,304.5C 77.2967,302.071 77.4634,299.738 78.5,297.5 Z"/></g>
<g><path style="opacity:1" fill="#dcdee0" d="M 94.5,300.5 C 98.1396,302.102 98.4729,304.435 95.5,307.5C 93.3848,305.385 93.0515,303.051 94.5,300.5 Z"/></g>
<g><path style="opacity:1" fill="#f2f1f3" d="M 276.5,301.5 C 277.5,301.5 278.5,301.5 279.5,301.5C 279.937,304.807 279.27,307.807 277.5,310.5C 275.215,307.822 274.882,304.822 276.5,301.5 Z"/></g>
<g><path style="opacity:1" fill="#e3e3e3" d="M 46.5,302.5 C 47.5,302.5 48.5,302.5 49.5,302.5C 48.949,310.297 47.949,310.297 46.5,302.5 Z"/></g>
<g><path style="opacity:1" fill="#eaebee" d="M 58.5,300.5 C 59.5,300.5 60.5,300.5 61.5,300.5C 61.6633,302.857 61.4966,305.19 61,307.5C 58.8634,305.679 58.0301,303.346 58.5,300.5 Z"/></g>
<g><path style="opacity:1" fill="#e8e9e9" d="M 295.5,304.5 C 296.5,304.5 297.5,304.5 298.5,304.5C 298.949,306.977 298.283,308.977 296.5,310.5C 295.534,308.604 295.201,306.604 295.5,304.5 Z"/></g>
<g><path style="opacity:1" fill="#eaeaeb" d="M 261.5,303.5 C 264.068,305.669 264.068,308.002 261.5,310.5C 258.852,308.132 258.852,305.798 261.5,303.5 Z"/></g>
<g><path style="opacity:1" fill="#dfe0e2" d="M 308.5,305.5 C 309.995,305.415 310.995,306.081 311.5,307.5C 310.974,309.23 309.974,310.564 308.5,311.5C 307.306,309.484 307.306,307.484 308.5,305.5 Z"/></g>
</svg>
